<svg version="1.2" xmlns="http://www.w3.org/2000/svg" viewBox="0 0 755 181" width="755" height="181">
	<title>logo--autohe-</title>
	<style>
		.s0 { fill: #000000 } 
	</style>
	<path class="s0" d="m442.9 10c18-1.9 38.8 4.8 52.7 16.2 16.9 13.8 26.6 35.8 28.6 57.2 2.2 23.5-3.1 48.4-18.5 66.8-13.3 16-31.6 24.1-52.2 25.9q-0.1 0-0.2 0c-19.6 1.8-40.4-4.4-55.5-16.9-16.1-13.3-24-32.8-25.9-53.3-2.4-25 1.5-51 18.2-70.8 13.2-15.7 32.7-23.4 52.8-25.1zm9.6 126c9.5-2.1 17.3-5.4 22.7-14 6.5-10.2 6.7-36.5 4-47.9-1.9-8.1-6.8-15.4-14-19.6-6.2-3.7-14.4-5.1-21.5-4-8.7 1.3-16.2 4.3-21.7 11.5-7.2 9.4-6.8 21.2-6.8 32.5-0.1 4.7-0.3 9.6 0.4 14.3 1.3 8.3 5.6 16 12.5 21.1 6.9 5.2 15.9 6.5 24.4 6.1z"/>
	<path class="s0" d="m611.9 11.2l86.7 0.2c14.6 0.1 29.2-0.2 43.7 0.3l0.1 39.3c-27.3-0.5-54.8-0.7-82.1-0.2-0.5 7.7-0.3 15.6-0.1 23.2 17.9 0 36-0.7 53.8 0.1q-0.2 18.8-0.1 37.6c-17.9-0.5-35.8-0.4-53.7-0.2-0.1 3.5-0.1 7-0.1 10.5l0.1 14.2c27.4 0.8 55-0.2 82.4 0.3q-0.4 19.5 0.1 38.9c-14.2 0.8-28.8 0.1-43 0.1l-88 0.2c-0.7-23 0.2-46.3 0.3-69.3q-0.3-47.6-0.1-95.2z"/>
	<path class="s0" d="m129.2 10.7c13.7 0.1 29-0.9 42.6 0.2 0.8 1.2 0.5 2.1 0.5 3.5-0.9 1.8-1.1 3.4-1.2 5.4-0.6 9.6-1 91.7 0 94.6 0.3 0.9 0.8 1.5 1.7 2 1.2 3.6 2.8 6.8 5.4 9.7 5 5.8 12.4 9 20 9.3 7.2 0.3 13.9-2 19.1-6.9 3.4-3.2 5.6-7.2 6.9-11.6 3.5-12.6 1.4-39 1.6-53.2q21.3-0.1 42.7 0-0.4 16.8-0.3 33.5c0 23.4-0.5 41.8-18.1 59.5-13.5 13.6-32.5 20.6-51.6 20.5-19.3-0.1-38.5-7.1-52.2-21.1-7-7.2-12.8-16.5-15.4-26.3-3.9-14.7-2.1-37.5-2.1-53.1z"/>
	<path class="s0" d="m401.6 10.5l0.6 0.2c-16.5 12.4-24.9 23.1-35.5 40.6l-14.3 0.1c-0.8 14.1-0.2 28.5-0.2 42.5l0.1 81.9q-22.3-0.2-44.6 0.1v-80.3-43.7c-9.2-1.1-19-0.4-28.3-0.4q-26.8-0.2-53.6 0.4c-0.1-13.6-0.9-27.8 0.1-41.3 17-0.3 34 0.1 50.9 0.1z"/>
	<path class="s0" d="m114.5 10.8c0.7-0.1 1.3 0 2 0.1 0.2 0.3 0.5 0.6 0.6 0.9 0.6 2 0 6.6 0 8.9q0.1 21.9-0.1 43.8c0 12.9 0.7 25.8 0 38.7-7.3-8.4-12.3-20.5-16.2-30.8q-8.2 19.1-15.7 38.5c10.6 0.6 21.4 0 32 0.3-0.2 4.6 0 9.2 0.8 13.7 3.6 22 16.1 38.1 33.8 50.9l-36.3 0.1v-27.4h-4.8q-20.4 0.1-40.9 0c-3.3 9.2-7.2 18.4-10.8 27.6q-24.5-0.4-49.1-0.1c11.1-26 23.1-51.7 34.4-77.7 7.6-17.6 14.2-36.4 23.6-53.1 10.6-19.2 26-28.6 46.7-34.4z"/>
	<path class="s0" d="m524.5 11.5c6.1-0.5 12.5-0.1 18.7 0 8.7 0 17.5-0.3 26.1 0.2l0.1 60.1c10.5 0.2 21.1-0.2 31.7 0.2-1 4-1.7 34-0.4 37.2l0.8 0.3c0.1 1 0 1.8-0.2 2.8-3.5 0.9-26.6 0.1-31.6 0.1-0.5 7.1 0.1 14.5 0 21.7-0.1 13.8-0.4 27.7 0 41.6q-22.6-0.3-45.2 0c-0.3-10.8-1.2-22.8 1-33.5 0.8-4.3 3.3-8.2 4.6-12.4 3.8-12.1 5.5-25.3 5.5-38 0-11.3-1.5-22.8-5.1-33.5-1.9-5.6-4.6-11.1-5.7-16.9-1.7-8.7-0.8-21-0.3-29.9z"/>
	<path class="s0" d="m172.8 116.4c-0.9-0.5-1.4-1.1-1.7-2-1-2.9-0.6-85 0-94.6 0.1-2 0.3-3.6 1.2-5.4l-0.4 65.6c0 12-0.7 24.5 0.9 36.4z"/>
	<path class="s0" d="m601.1 72c1.3 2.8 0.5 32.5 0.4 37.5l-0.8-0.3c-1.3-3.2-0.6-33.2 0.4-37.2z"/>
</svg>